<svg xmlns="http://www.w3.org/2000/svg" viewBox="0 0 1600 1000" role="img" aria-labelledby="title desc">
  <title id="title">My Bizomedia Studio dashboard on a laptop and phone</title>
  <desc id="desc">A premium dark dashboard with calendar, analytics, content approvals and a mobile post approval screen.</desc>
  <defs>
    <linearGradient id="metal" x1="0" y1="0" x2="1" y2="1">
      <stop offset="0" stop-color="#bac5d3"/>
      <stop offset=".12" stop-color="#343e4b"/>
      <stop offset=".52" stop-color="#080b10"/>
      <stop offset=".86" stop-color="#303947"/>
      <stop offset="1" stop-color="#d1d8e2"/>
    </linearGradient>
    <linearGradient id="base" x1="0" y1="0" x2="0" y2="1">
      <stop stop-color="#697382"/>
      <stop offset=".35" stop-color="#202733"/>
      <stop offset="1" stop-color="#090c12"/>
    </linearGradient>
    <linearGradient id="brand" x1="0" y1="0" x2="1" y2="0">
      <stop stop-color="#24e3d5"/>
      <stop offset=".48" stop-color="#2f9cff"/>
      <stop offset="1" stop-color="#8d4dff"/>
    </linearGradient>
    <linearGradient id="brandSoft" x1="0" y1="0" x2="1" y2="1">
      <stop stop-color="#0edccc" stop-opacity=".28"/>
      <stop offset=".52" stop-color="#167ee8" stop-opacity=".16"/>
      <stop offset="1" stop-color="#7b43ff" stop-opacity=".24"/>
    </linearGradient>
    <linearGradient id="postOne" x1="0" y1="0" x2="1" y2="1">
      <stop stop-color="#172b34"/>
      <stop offset=".55" stop-color="#0b1830"/>
      <stop offset="1" stop-color="#28135c"/>
    </linearGradient>
    <linearGradient id="postTwo" x1="0" y1="1" x2="1" y2="0">
      <stop stop-color="#25124f"/>
      <stop offset=".5" stop-color="#0d2735"/>
      <stop offset="1" stop-color="#0a121d"/>
    </linearGradient>
    <radialGradient id="sceneGlow" cx="50%" cy="50%" r="50%">
      <stop stop-color="#18d8d0" stop-opacity=".22"/>
      <stop offset=".48" stop-color="#256dff" stop-opacity=".1"/>
      <stop offset="1" stop-color="#5f24ff" stop-opacity="0"/>
    </radialGradient>
    <filter id="shadow" x="-30%" y="-30%" width="160%" height="180%">
      <feDropShadow dx="0" dy="34" stdDeviation="30" flood-color="#000" flood-opacity=".72"/>
    </filter>
    <filter id="phoneShadow" x="-45%" y="-35%" width="190%" height="190%">
      <feDropShadow dx="-10" dy="30" stdDeviation="24" flood-color="#000" flood-opacity=".82"/>
      <feDropShadow dx="0" dy="0" stdDeviation="18" flood-color="#5732ff" flood-opacity=".16"/>
    </filter>
    <filter id="cyanGlow" x="-100%" y="-100%" width="300%" height="300%">
      <feGaussianBlur stdDeviation="8" result="blur"/>
      <feMerge><feMergeNode in="blur"/><feMergeNode in="SourceGraphic"/></feMerge>
    </filter>
    <clipPath id="screenClip"><rect x="120" y="90" width="1070" height="650" rx="24"/></clipPath>
    <clipPath id="phoneClip"><rect x="1171" y="335" width="285" height="579" rx="42"/></clipPath>
  </defs>

  <ellipse cx="760" cy="875" rx="720" ry="105" fill="#000" opacity=".55"/>
  <ellipse cx="830" cy="495" rx="710" ry="420" fill="url(#sceneGlow)"/>
  <g fill="none" stroke-linecap="round" opacity=".42">
    <path d="M30 690C390 455 650 458 1015 680S1442 810 1585 630" stroke="#22ddd7" stroke-width="2"/>
    <path d="M8 730C350 505 675 486 1000 700s443 164 603-32" stroke="#2e86ff" stroke-width="2"/>
    <path d="M70 790c340-208 690-230 1010-12s390 173 500 56" stroke="#7d4cff" stroke-width="2"/>
  </g>

  <!-- Laptop -->
  <g filter="url(#shadow)">
    <rect x="82" y="52" width="1150" height="730" rx="48" fill="url(#metal)" stroke="#8793a4" stroke-width="2"/>
    <rect x="105" y="75" width="1104" height="687" rx="32" fill="#020408"/>
    <circle cx="657" cy="67" r="4" fill="#071827" stroke="#1e3345"/>
    <circle cx="657" cy="67" r="1.4" fill="#37799c" opacity=".62"/>
  </g>

  <!-- Laptop interface -->
  <g clip-path="url(#screenClip)" font-family="Inter, Arial, sans-serif">
    <rect x="120" y="90" width="1070" height="650" fill="#071019"/>
    <rect x="120" y="90" width="190" height="650" fill="#091521"/>
    <rect x="309" y="90" width="1" height="650" fill="#233344"/>

    <image href="bizomedia-logo.svg" x="142" y="114" width="44" height="44"/>
    <text x="196" y="143" fill="#fff" font-size="21" font-weight="700">bizomedia</text>

    <g font-size="15" fill="#91a0ad">
      <rect x="135" y="190" width="160" height="48" rx="12" fill="url(#brandSoft)" stroke="#22e1d2" stroke-opacity=".36"/>
      <path d="M154 213l10-9 10 9v12h-7v-8h-6v8h-7z" fill="none" stroke="#33e9de" stroke-width="1.7"/>
      <text x="188" y="220" fill="#f6fbff" font-weight="650">My Studio</text>

      <rect x="154" y="270" width="17" height="17" rx="3" fill="none" stroke="#91a0ad"/>
      <path d="M157 266v7m11-7v7m-13 3h15" stroke="#91a0ad"/>
      <text x="188" y="283">Calendar</text>

      <path d="M155 322h15l5 5v14h-20zM169 322v6h6" fill="none" stroke="#91a0ad"/>
      <text x="188" y="338">Content</text>

      <circle cx="164" cy="385" r="10" fill="none" stroke="#91a0ad"/>
      <path d="m159 385 4 4 7-8" fill="none" stroke="#91a0ad"/>
      <text x="188" y="390">Approvals</text>

      <path d="m153 438 22-10-8 22-5-8z" fill="none" stroke="#91a0ad"/>
      <text x="188" y="443">Publishing</text>

      <path d="M155 500v-8m6 8v-16m6 16v-23m6 23v-12" fill="none" stroke="#91a0ad" stroke-width="2"/>
      <text x="188" y="499">Analytics</text>

      <circle cx="164" cy="557" r="9" fill="none" stroke="#91a0ad"/>
      <path d="M164 544v5m0 16v5m-13-13h5m16 0h5m-22-9 4 4m10 10 4 4m0-18-4 4m-10 10-4 4" fill="none" stroke="#91a0ad"/>
      <text x="188" y="562">Settings</text>
    </g>

    <g>
      <text x="342" y="137" fill="#a8b5c2" font-size="16">MY BIZOMEDIA STUDIO</text>
      <text x="342" y="176" fill="#fff" font-size="30" font-weight="750">Your content is ready</text>
      <text x="342" y="202" fill="#8191a0" font-size="14">Review, approve and track everything in one place.</text>
      <circle cx="1117" cy="132" r="20" fill="#101e2b" stroke="#28394b"/>
      <path d="M1111 137h12m-10-3v-7a4 4 0 0 1 8 0v7l3 4h-14z" fill="none" stroke="#dce5ec"/>
      <image href="bizomedia-logo.svg" x="1148" y="110" width="43" height="43"/>
    </g>

    <!-- Metrics -->
    <g>
      <rect x="702" y="117" width="145" height="112" rx="15" fill="#0d1925" stroke="#213244"/>
      <text x="720" y="143" fill="#8d9ba8" font-size="12">Posts this month</text>
      <text x="720" y="180" fill="#fff" font-size="27" font-weight="700">24 / 30</text>
      <text x="720" y="204" fill="#2be0d0" font-size="12">6 ready to review</text>

      <rect x="860" y="117" width="145" height="112" rx="15" fill="#0d1925" stroke="#213244"/>
      <text x="878" y="143" fill="#8d9ba8" font-size="12">Reach</text>
      <text x="878" y="180" fill="#fff" font-size="27" font-weight="700">128K</text>
      <path d="M878 209c18-7 25-1 37-8s20-1 32-9 22-4 39-18" fill="none" stroke="#2be0d0" stroke-width="2"/>

      <rect x="1018" y="117" width="145" height="112" rx="15" fill="#0d1925" stroke="#213244"/>
      <text x="1036" y="143" fill="#8d9ba8" font-size="12">Engagement</text>
      <text x="1036" y="180" fill="#fff" font-size="27" font-weight="700">5.6%</text>
      <path d="M1036 209c17-11 28-2 40-9s20 0 31-10 24-4 38-20" fill="none" stroke="#8857ff" stroke-width="2"/>
    </g>

    <!-- Calendar -->
    <g>
      <rect x="334" y="250" width="383" height="449" rx="18" fill="#0b1722" stroke="#213244"/>
      <text x="357" y="284" fill="#fff" font-size="19" font-weight="700">Content Calendar</text>
      <rect x="627" y="264" width="65" height="28" rx="8" fill="#101f2d" stroke="#293b4d"/>
      <text x="645" y="283" fill="#b7c2cb" font-size="11">Today</text>
      <text x="474" y="328" fill="#dfe7ed" font-size="14" font-weight="650">May 2026</text>
      <path d="m360 324 6-6m-6 6 6 6m322-6-6-6m6 6-6 6" fill="none" stroke="#81909e"/>
      <g fill="#7e8c99" font-size="11" text-anchor="middle">
        <text x="377" y="360">Mon</text><text x="428" y="360">Tue</text><text x="479" y="360">Wed</text><text x="530" y="360">Thu</text><text x="581" y="360">Fri</text><text x="632" y="360">Sat</text><text x="683" y="360">Sun</text>
      </g>
      <g fill="#d8e0e7" font-size="13" text-anchor="middle">
        <text x="377" y="391" fill="#596876">27</text><text x="428" y="391" fill="#596876">28</text><text x="479" y="391" fill="#596876">29</text><text x="530" y="391" fill="#596876">30</text><text x="581" y="391">1</text><text x="632" y="391">2</text><text x="683" y="391">3</text>
        <text x="377" y="427">4</text><text x="428" y="427">5</text><text x="479" y="427">6</text><text x="530" y="427">7</text><text x="581" y="427">8</text><text x="632" y="427">9</text><text x="683" y="427">10</text>
        <text x="377" y="463">11</text><text x="428" y="463">12</text><text x="479" y="463">13</text><circle cx="530" cy="458" r="18" fill="#20dace"/><text x="530" y="463" fill="#041014" font-weight="800">14</text><text x="581" y="463">15</text><text x="632" y="463">16</text><text x="683" y="463">17</text>
        <text x="377" y="499">18</text><text x="428" y="499">19</text><text x="479" y="499">20</text><text x="530" y="499">21</text><text x="581" y="499">22</text><text x="632" y="499">23</text><text x="683" y="499">24</text>
      </g>
      <line x1="354" y1="528" x2="697" y2="528" stroke="#213244"/>
      <text x="357" y="559" fill="#7f8d99" font-size="11">10:00</text>
      <circle cx="423" cy="555" r="12" fill="#df287e"/><text x="423" y="560" fill="#fff" font-size="11" text-anchor="middle" font-weight="800">◎</text>
      <text x="444" y="552" fill="#dce4ea" font-size="12">Brand story carousel</text>
      <text x="444" y="569" fill="#2be0d0" font-size="10">Scheduled</text>
      <rect x="628" y="545" width="65" height="24" rx="7" fill="#0b2d2b" stroke="#1dc8b9"/>
      <text x="642" y="561" fill="#38dfd1" font-size="9">READY</text>
      <line x1="354" y1="586" x2="697" y2="586" stroke="#213244"/>
      <text x="357" y="617" fill="#7f8d99" font-size="11">14:30</text>
      <circle cx="423" cy="613" r="12" fill="#287be4"/><text x="423" y="618" fill="#fff" font-size="12" text-anchor="middle" font-weight="800">f</text>
      <text x="444" y="610" fill="#dce4ea" font-size="12">Campaign launch post</text>
      <text x="444" y="627" fill="#8d62ff" font-size="10">Waiting approval</text>
      <rect x="628" y="603" width="65" height="24" rx="7" fill="#221b43" stroke="#8153e7"/>
      <text x="640" y="619" fill="#a783ff" font-size="9">REVIEW</text>
      <line x1="354" y1="644" x2="697" y2="644" stroke="#213244"/>
      <text x="357" y="675" fill="#7f8d99" font-size="11">17:00</text>
      <circle cx="423" cy="671" r="12" fill="#1376a8"/><text x="423" y="675" fill="#fff" font-size="8" text-anchor="middle" font-weight="800">in</text>
      <text x="444" y="668" fill="#dce4ea" font-size="12">Monthly insight</text>
      <text x="444" y="685" fill="#2be0d0" font-size="10">Scheduled</text>
    </g>

    <!-- Content and approval panels -->
    <g>
      <rect x="735" y="250" width="428" height="264" rx="18" fill="#0b1722" stroke="#213244"/>
      <text x="758" y="284" fill="#fff" font-size="19" font-weight="700">Content ready for you</text>
      <text x="1099" y="283" fill="#38dcd4" font-size="11">View all →</text>

      <rect x="758" y="307" width="182" height="179" rx="14" fill="url(#postOne)" stroke="#2c3c50"/>
      <path d="M769 424c45-40 83-45 159-96M765 450c65-47 107-50 165-104" fill="none" stroke="#315fff" stroke-opacity=".42"/>
      <circle cx="849" cy="378" r="42" fill="#081827" stroke="#26e4d7" stroke-width="2" filter="url(#cyanGlow)"/>
      <image href="bizomedia-logo.svg" x="821" y="350" width="56" height="56"/>
      <text x="772" y="462" fill="#fff" font-size="13" font-weight="700">5 content ideas that</text>
      <text x="772" y="478" fill="#fff" font-size="13" font-weight="700">build stronger brands</text>

      <rect x="958" y="307" width="182" height="179" rx="14" fill="url(#postTwo)" stroke="#2c3c50"/>
      <path d="M971 434c54-55 105-53 157-107M969 456c69-56 111-55 162-105" fill="none" stroke="#893bff" stroke-opacity=".48"/>
      <rect x="1018" y="344" width="62" height="65" rx="12" fill="#0b1724" stroke="#2be0d0"/>
      <path d="M1030 389h39m-34-12 10-9 9 7 16-17" fill="none" stroke="#2be0d0" stroke-width="3"/>
      <text x="972" y="462" fill="#fff" font-size="13" font-weight="700">Your May strategy</text>
      <text x="972" y="478" fill="#fff" font-size="13" font-weight="700">is ready to launch</text>

      <rect x="735" y="532" width="428" height="167" rx="18" fill="#0b1722" stroke="#213244"/>
      <text x="758" y="565" fill="#fff" font-size="17" font-weight="700">Waiting for approval</text>
      <text x="1097" y="565" fill="#38dcd4" font-size="11">3 items</text>
      <line x1="758" y1="584" x2="1140" y2="584" stroke="#203142"/>
      <rect x="758" y="600" width="43" height="43" rx="9" fill="url(#postOne)"/>
      <text x="815" y="616" fill="#e3e9ee" font-size="12">Social media trends for 2026</text>
      <text x="815" y="635" fill="#7c8c99" font-size="10">Instagram · Carousel</text>
      <rect x="1070" y="605" width="70" height="30" rx="8" fill="#0c302e" stroke="#25d8c9"/>
      <text x="1086" y="624" fill="#38e5d7" font-size="10">APPROVE</text>
      <line x1="758" y1="653" x2="1140" y2="653" stroke="#203142"/>
      <rect x="758" y="663" width="30" height="30" rx="7" fill="#1d60be"/>
      <text x="773" y="683" fill="#fff" font-size="17" text-anchor="middle" font-weight="800">f</text>
      <text x="801" y="681" fill="#cbd4db" font-size="11">Brand awareness campaign</text>
    </g>
  </g>

  <!-- Laptop base -->
  <g filter="url(#shadow)">
    <path d="M35 782h1244l90 66c8 6 4 20-7 22-197 28-1054 30-1308 0-13-2-18-17-7-25z" fill="url(#base)" stroke="#667181"/>
    <path d="M35 782h1244l29 21H9z" fill="#85909d" opacity=".82"/>
    <path d="M526 783h286c0 22-20 31-50 31H576c-29 0-50-9-50-31z" fill="#151a22" stroke="#6a7582"/>
    <path d="M75 861c267 23 1003 25 1246 1" fill="none" stroke="#a6b0bd" stroke-opacity=".4"/>
  </g>

  <!-- Phone -->
  <g filter="url(#phoneShadow)">
    <rect x="1142" y="302" width="343" height="646" rx="64" fill="url(#metal)" stroke="#a2acb8" stroke-width="2"/>
    <rect x="1157" y="317" width="313" height="616" rx="52" fill="#020409"/>
    <rect x="1171" y="335" width="285" height="579" rx="42" fill="#071019"/>
    <rect x="1244" y="326" width="139" height="31" rx="18" fill="#020307"/>
    <circle cx="1363" cy="341" r="4" fill="#0b2438"/>
    <rect x="1137" y="422" width="6" height="68" rx="3" fill="#5d6875"/>
    <rect x="1484" y="464" width="6" height="102" rx="3" fill="#5d6875"/>
  </g>

  <g clip-path="url(#phoneClip)" font-family="Inter, Arial, sans-serif">
    <rect x="1171" y="335" width="285" height="579" fill="#071019"/>
    <image href="bizomedia-logo.svg" x="1192" y="374" width="34" height="34"/>
    <text x="1236" y="397" fill="#fff" font-size="17" font-weight="700">bizomedia</text>
    <path d="M1408 395h15m-13-3v-7a5 5 0 0 1 10 0v7l4 5h-17z" fill="none" stroke="#d7e1e8"/>
    <circle cx="1420" cy="381" r="3" fill="#8c55ff"/>

    <rect x="1189" y="430" width="249" height="42" rx="12" fill="#0d1a27" stroke="#253648"/>
    <rect x="1192" y="433" width="121" height="36" rx="10" fill="url(#brand)"/>
    <text x="1225" y="456" fill="#fff" font-size="12" font-weight="650">Overview</text>
    <text x="1354" y="456" fill="#82919e" font-size="12">Details</text>

    <rect x="1189" y="490" width="249" height="300" rx="16" fill="#0a1520" stroke="#26384b"/>
    <circle cx="1209" cy="512" r="10" fill="#df287e"/>
    <text x="1209" y="516" fill="#fff" font-size="9" text-anchor="middle" font-weight="800">◎</text>
    <text x="1227" y="517" fill="#fff" font-size="12" font-weight="650">Instagram</text>
    <rect x="1203" y="534" width="221" height="171" rx="12" fill="url(#postOne)"/>
    <path d="M1208 663c62-51 122-69 207-112M1210 687c76-56 143-73 207-105" fill="none" stroke="#286aff" stroke-width="2" stroke-opacity=".55"/>
    <circle cx="1314" cy="603" r="54" fill="#061624" stroke="#26e4d7" stroke-width="2" filter="url(#cyanGlow)"/>
    <image href="bizomedia-logo.svg" x="1277" y="566" width="74" height="74"/>
    <text x="1211" y="727" fill="#fff" font-size="16" font-weight="750">5 content ideas that</text>
    <text x="1211" y="747" fill="#fff" font-size="16" font-weight="750">build stronger brands</text>
    <text x="1211" y="770" fill="#50cde8" font-size="10">#bizomedia #marketing #content</text>

    <g fill="none" stroke="#dce5ec" stroke-width="1.8">
      <path d="M1200 812h19v17h-19z"/>
      <path d="M1251 829v-18m-9 9h18"/>
      <path d="m1292 827 8-18 8 18m-13-7h10"/>
      <path d="M1339 810h18v19h-18z"/>
    </g>
    <text x="1201" y="852" fill="#8796a2" font-size="10">Ready for review</text>
    <rect x="1189" y="866" width="249" height="47" rx="16" fill="url(#brand)"/>
    <path d="m1262 889 8 8 14-17" fill="none" stroke="#fff" stroke-width="2"/>
    <text x="1295" y="895" fill="#fff" font-size="14" font-weight="700">Approve Post</text>
  </g>

  <g font-family="Inter, Arial, sans-serif">
    <rect x="95" y="900" width="290" height="43" rx="21" fill="#07121d" stroke="#24536e"/>
    <circle cx="119" cy="921" r="6" fill="#2be0d0" filter="url(#cyanGlow)"/>
    <text x="138" y="927" fill="#b8c5cf" font-size="16">Calendar · Approvals · Analytics</text>
  </g>
</svg>
